<?xml version="1.0" encoding="UTF-8" standalone="no"?>
<!-- Created with Inkscape (http://www.inkscape.org/) -->

<svg
   xmlns:dc="http://purl.org/dc/elements/1.1/"
   xmlns:cc="http://creativecommons.org/ns#"
   xmlns:rdf="http://www.w3.org/1999/02/22-rdf-syntax-ns#"
   xmlns:svg="http://www.w3.org/2000/svg"
   xmlns="http://www.w3.org/2000/svg"
   xmlns:sodipodi="http://sodipodi.sourceforge.net/DTD/sodipodi-0.dtd"
   xmlns:inkscape="http://www.inkscape.org/namespaces/inkscape"
   width="160"
   height="40"
   id="svg5617"
   version="1.1"
   inkscape:version="0.48.2 r9819"
   sodipodi:docname="logo.svg">
  <defs
     id="defs5619" />
  <sodipodi:namedview
     id="base"
     pagecolor="#ffffff"
     bordercolor="#666666"
     borderopacity="1.0"
     inkscape:pageopacity="0.0"
     inkscape:pageshadow="2"
     inkscape:zoom="1.979899"
     inkscape:cx="118.00582"
     inkscape:cy="9.1805813"
     inkscape:document-units="px"
     inkscape:current-layer="layer1"
     showgrid="false"
     borderlayer="true"
     inkscape:window-width="818"
     inkscape:window-height="633"
     inkscape:window-x="394"
     inkscape:window-y="12"
     inkscape:window-maximized="0" />
  <metadata
     id="metadata5622">
    <rdf:RDF>
      <cc:Work
         rdf:about="">
        <dc:format>image/svg+xml</dc:format>
        <dc:type
           rdf:resource="http://purl.org/dc/dcmitype/StillImage" />
        <dc:title />
      </cc:Work>
    </rdf:RDF>
  </metadata>
  <g
     inkscape:label="Layer 1"
     inkscape:groupmode="layer"
     id="layer1"
     transform="translate(0,-1012.3622)">
    <path
       style="fill:#27ae60;fill-opacity:0.98823529"
       sodipodi:nodetypes="scscsssscs"
       d="m 18.982109,1018.5877 c -7.616566,0 -14.5738482,5.7177 -18.982108314496,13.0331 C 4.3687279,1039.2017 11.327034,1046.1366 18.982109,1046.1366 c 7.890121,0 14.833711,-6.5565 18.890179,-14.56 -4.278191,-7.3562 -11.257626,-12.9889 -18.890179,-12.9889 z m 0,3.1137 c 6.002106,0 12.760582,4.9623 16.395223,10.0249 -1.708567,2.7511 -8.335874,11.2967 -16.395223,11.2967 -5.916543,0 -12.7296385,-5.9902 -16.3866111,-11.3375 1.8636496,-2.5123 8.5901601,-9.9841 16.3866111,-9.9841 z"
       id="path5499"
       inkscape:connector-curvature="0" />
    <path
       transform="matrix(0.06449068,0,0,0.06449068,12.412751,1020.697)"
       d="m 167.05085,180.88136 a 65.898308,65.898308 0 1 1 -131.796616,0 65.898308,65.898308 0 1 1 131.796616,0 z"
       sodipodi:ry="65.898308"
       sodipodi:rx="65.898308"
       sodipodi:cy="180.88136"
       sodipodi:cx="101.15254"
       id="path5501"
       style="fill:none;stroke:#27ae60;stroke-width:37.16212845;stroke-miterlimit:4;stroke-opacity:1;stroke-dasharray:none"
       sodipodi:type="arc" />
    <g
       style="font-size:6.27635956px;font-style:normal;font-variant:normal;font-weight:normal;font-stretch:normal;line-height:125%;letter-spacing:0px;word-spacing:0px;fill:#27ae60;fill-opacity:0.98823529;stroke:none;font-family:futura;-inkscape-font-specification:futura"
       id="text5503">
      <path
         d="m 52.106973,1038.6964 c 0.901216,0.8497 1.931181,1.5449 3.0899,2.0857 1.158704,0.515 2.317415,0.7725 3.476137,0.7725 1.441941,0 2.53628,-0.2962 3.283019,-0.8884 0.746711,-0.5922 1.120073,-1.3776 1.120089,-2.356 -1.6e-5,-0.515 -0.103012,-0.9528 -0.30899,-1.3133 -0.180259,-0.3604 -0.450625,-0.6694 -0.811099,-0.9269 -0.334753,-0.2833 -0.746739,-0.5407 -1.23596,-0.7725 -0.463497,-0.2317 -0.97848,-0.4635 -1.54495,-0.6952 l -3.476137,-1.5063 c -0.617988,-0.2575 -1.235967,-0.5794 -1.85394,-0.9656 -0.592236,-0.3863 -1.132968,-0.8498 -1.622198,-1.3905 -0.489238,-0.5407 -0.888349,-1.1716 -1.197336,-1.8926 -0.283244,-0.7209 -0.424864,-1.5449 -0.424861,-2.4719 -3e-6,-1.0042 0.20599,-1.9311 0.61798,-2.7809 0.437732,-0.8754 1.029962,-1.635 1.776692,-2.2788 0.74672,-0.6437 1.635066,-1.1458 2.665039,-1.5063 1.055707,-0.3605 2.201544,-0.5407 3.437513,-0.5408 1.46769,10e-5 2.883893,0.2962 4.248613,0.8884 1.364689,0.5665 2.536275,1.339 3.514761,2.3174 l -2.278801,2.8582 c -0.823989,-0.6695 -1.673711,-1.1973 -2.549168,-1.5836 -0.875484,-0.3862 -1.853952,-0.5793 -2.935405,-0.5794 -1.21022,1e-4 -2.175813,0.2704 -2.896781,0.8111 -0.720984,0.515 -1.081472,1.236 -1.081465,2.163 -7e-6,0.4892 0.10299,0.9141 0.30899,1.2746 0.231735,0.3347 0.52785,0.6437 0.888347,0.9269 0.386228,0.2575 0.823964,0.5022 1.313207,0.7339 0.489224,0.206 0.991332,0.412 1.506326,0.618 l 3.437514,1.429 c 0.74671,0.309 1.429063,0.6695 2.047059,1.0815 0.617962,0.412 1.14582,0.8884 1.583573,1.4291 0.463467,0.5407 0.823954,1.1716 1.081465,1.8925 0.257472,0.6953 0.386218,1.5064 0.386238,2.4333 -2e-5,1.03 -0.206013,1.9956 -0.61798,2.8968 -0.412006,0.9012 -1.01711,1.6995 -1.815317,2.3947 -0.772491,0.6695 -1.725209,1.2102 -2.858157,1.6222 -1.107227,0.3862 -2.368935,0.5793 -3.785127,0.5794 -1.699454,-10e-5 -3.347399,-0.3219 -4.94384,-0.9656 -1.570703,-0.6438 -2.961157,-1.5579 -4.171365,-2.7423 l 2.626415,-3.0513"
         style="font-size:38.62374878px;font-weight:600;text-align:start;line-height:125%;writing-mode:lr-tb;text-anchor:start;fill:#27ae60;font-family:Source Sans Pro;-inkscape-font-specification:Source Sans Pro Semi-Bold"
         id="path2992" />
      <path
         d="m 72.265553,1019.7321 8.497225,0 c 1.390442,1e-4 2.665024,0.1288 3.823751,0.3863 1.184445,0.2575 2.201536,0.6952 3.051276,1.3132 0.849703,0.618 1.519181,1.4291 2.008435,2.4333 0.489213,0.9785 0.73383,2.2015 0.733851,3.6692 -2.1e-5,1.3905 -0.244638,2.6007 -0.733851,3.6307 -0.489254,1.0299 -1.171606,1.8925 -2.047059,2.5878 -0.84974,0.6694 -1.866831,1.1716 -3.051276,1.5063 -1.158727,0.309 -2.420434,0.4635 -3.785127,0.4635 l -4.01687,0 0,9.2697 -4.480355,0 0,-25.26 m 8.149611,12.3983 c 3.707865,0 5.561803,-1.5321 5.56182,-4.5963 -1.7e-5,-1.5964 -0.463501,-2.6907 -1.390455,-3.283 -0.926985,-0.6179 -2.317438,-0.9269 -4.171365,-0.927 l -3.669256,0 0,8.8063 3.669256,0"
         style="font-size:38.62374878px;font-weight:600;text-align:start;line-height:125%;writing-mode:lr-tb;text-anchor:start;fill:#27ae60;font-family:Source Sans Pro;-inkscape-font-specification:Source Sans Pro Semi-Bold"
         id="path2994" />
      <path
         d="m 95.122969,1019.7321 15.217761,0 0,3.7852 -10.737406,0 0,6.4501 9.076586,0 0,3.7852 -9.076586,0 0,7.4543 11.123636,0 0,3.7852 -15.603991,0 0,-25.26"
         style="font-size:38.62374878px;font-weight:600;text-align:start;line-height:125%;writing-mode:lr-tb;text-anchor:start;fill:#27ae60;font-family:Source Sans Pro;-inkscape-font-specification:Source Sans Pro Semi-Bold"
         id="path2996" />
      <path
         d="m 120.3485,1031.551 3.59201,0 c 1.72518,0 3.03839,-0.3605 3.93962,-1.0815 0.92696,-0.7209 1.39044,-1.8024 1.39046,-3.2444 -2e-5,-1.4676 -0.4635,-2.4847 -1.39046,-3.0512 -0.90123,-0.5665 -2.21444,-0.8497 -3.93962,-0.8498 l -3.59201,0 0,8.2269 m 9.30833,13.4411 -5.44595,-9.8877 -3.86238,0 0,9.8877 -4.48035,0 0,-25.26 8.53585,0 c 1.31319,1e-4 2.53627,0.1288 3.66925,0.3863 1.13295,0.2575 2.11142,0.6823 2.93541,1.2746 0.82395,0.5665 1.46768,1.3261 1.93118,2.2788 0.48922,0.9527 0.73383,2.1372 0.73386,3.5533 -3e-5,1.9312 -0.46351,3.4891 -1.39046,4.6735 -0.90124,1.1845 -2.11145,2.0342 -3.63063,2.5492 l 6.0253,10.5443 -5.02108,0"
         style="font-size:38.62374878px;font-weight:600;text-align:start;line-height:125%;writing-mode:lr-tb;text-anchor:start;fill:#27ae60;font-family:Source Sans Pro;-inkscape-font-specification:Source Sans Pro Semi-Bold"
         id="path2998" />
      <path
         d="m 148.83774,1045.4556 c -1.64795,-10e-5 -3.15428,-0.2962 -4.51897,-0.8884 -1.36472,-0.618 -2.5363,-1.4934 -3.51477,-2.6264 -0.97847,-1.1587 -1.73807,-2.5492 -2.2788,-4.1714 -0.54073,-1.6222 -0.8111,-3.4632 -0.8111,-5.5232 0,-2.0341 0.27037,-3.8495 0.8111,-5.4459 0.54073,-1.6222 1.30033,-2.9869 2.2788,-4.0941 0.97847,-1.1072 2.15005,-1.9569 3.51477,-2.5492 1.36469,-0.5922 2.87102,-0.8883 4.51897,-0.8884 1.64794,10e-5 3.15426,0.2962 4.51898,0.8884 1.36469,0.5923 2.53628,1.442 3.51476,2.5492 1.0042,1.1072 1.77667,2.4719 2.31743,4.0941 0.54071,1.5964 0.81107,3.4118 0.8111,5.4459 -3e-5,2.06 -0.27039,3.901 -0.8111,5.5232 -0.54076,1.6222 -1.31323,3.0127 -2.31743,4.1714 -0.97848,1.133 -2.15007,2.0084 -3.51476,2.6264 -1.36472,0.5922 -2.87104,0.8883 -4.51898,0.8884 m 0,-3.901 c 1.00421,0 1.90543,-0.2189 2.70367,-0.6567 0.7982,-0.4377 1.48056,-1.0557 2.04706,-1.8539 0.56646,-0.824 1.00419,-1.8024 1.3132,-2.9354 0.30897,-1.1587 0.46347,-2.4462 0.46349,-3.8624 -2e-5,-2.8324 -0.59225,-5.0468 -1.77669,-6.6433 -1.15873,-1.6221 -2.74231,-2.4332 -4.75073,-2.4333 -2.00844,1e-4 -3.60489,0.8112 -4.78934,2.4333 -1.15872,1.5965 -1.73808,3.8109 -1.73807,6.6433 -1e-5,1.4162 0.15449,2.7037 0.46349,3.8624 0.30898,1.133 0.74671,2.1114 1.3132,2.9354 0.56648,0.7982 1.24883,1.4162 2.04706,1.8539 0.79821,0.4378 1.69943,0.6567 2.70366,0.6567"
         style="font-size:38.62374878px;font-weight:600;text-align:start;line-height:125%;writing-mode:lr-tb;text-anchor:start;fill:#27ae60;font-family:Source Sans Pro;-inkscape-font-specification:Source Sans Pro Semi-Bold"
         id="path3000" />
    </g>
  </g>
</svg>
